<svg width="88" height="88" viewBox="0 0 88 88" fill="none" xmlns="http://www.w3.org/2000/svg">
<rect width="88" height="88" rx="10" fill="#779DFF"/>
<g filter="url(#filter0_d_12_61)">
<path d="M24.7136 58.32C22.4203 58.32 20.3536 57.8533 18.5136 56.92C16.7003 55.96 15.2736 54.64 14.2336 52.96C13.2203 51.28 12.7136 49.3733 12.7136 47.24C12.7136 45.1067 13.2203 43.2 14.2336 41.52C15.2736 39.84 16.7003 38.5333 18.5136 37.6C20.3536 36.64 22.4203 36.16 24.7136 36.16C26.9803 36.16 28.9536 36.64 30.6336 37.6C32.3403 38.5333 33.5803 39.88 34.3536 41.64L29.5136 44.24C28.3936 42.2667 26.7803 41.28 24.6736 41.28C23.0469 41.28 21.7003 41.8133 20.6336 42.88C19.5669 43.9467 19.0336 45.4 19.0336 47.24C19.0336 49.08 19.5669 50.5333 20.6336 51.6C21.7003 52.6667 23.0469 53.2 24.6736 53.2C26.8069 53.2 28.4203 52.2133 29.5136 50.24L34.3536 52.88C33.5803 54.5867 32.3403 55.92 30.6336 56.88C28.9536 57.84 26.9803 58.32 24.7136 58.32ZM45.1864 58.32C43.3997 58.32 41.6531 58.1067 39.9464 57.68C38.2397 57.2267 36.8797 56.6667 35.8664 56L37.9464 51.52C38.9064 52.1333 40.0664 52.64 41.4264 53.04C42.7864 53.4133 44.1197 53.6 45.4264 53.6C48.0664 53.6 49.3864 52.9467 49.3864 51.64C49.3864 51.0267 49.0264 50.5867 48.3064 50.32C47.5864 50.0533 46.4797 49.8267 44.9864 49.64C43.2264 49.3733 41.7731 49.0667 40.6264 48.72C39.4797 48.3733 38.4797 47.76 37.6264 46.88C36.7997 46 36.3864 44.7467 36.3864 43.12C36.3864 41.76 36.7731 40.56 37.5464 39.52C38.3464 38.4533 39.4931 37.6267 40.9864 37.04C42.5064 36.4533 44.2931 36.16 46.3464 36.16C47.8664 36.16 49.3731 36.3333 50.8664 36.68C52.3864 37 53.6397 37.4533 54.6264 38.04L52.5464 42.48C50.6531 41.4133 48.5864 40.88 46.3464 40.88C45.0131 40.88 44.0131 41.0667 43.3464 41.44C42.6797 41.8133 42.3464 42.2933 42.3464 42.88C42.3464 43.5467 42.7064 44.0133 43.4264 44.28C44.1464 44.5467 45.2931 44.8 46.8664 45.04C48.6264 45.3333 50.0664 45.6533 51.1864 46C52.3064 46.32 53.2797 46.92 54.1064 47.8C54.9331 48.68 55.3464 49.9067 55.3464 51.48C55.3464 52.8133 54.9464 54 54.1464 55.04C53.3464 56.08 52.1731 56.8933 50.6264 57.48C49.1064 58.04 47.2931 58.32 45.1864 58.32ZM66.4364 58.32C64.6497 58.32 62.9031 58.1067 61.1964 57.68C59.4897 57.2267 58.1297 56.6667 57.1164 56L59.1964 51.52C60.1564 52.1333 61.3164 52.64 62.6764 53.04C64.0364 53.4133 65.3697 53.6 66.6764 53.6C69.3164 53.6 70.6364 52.9467 70.6364 51.64C70.6364 51.0267 70.2764 50.5867 69.5564 50.32C68.8364 50.0533 67.7297 49.8267 66.2364 49.64C64.4764 49.3733 63.0231 49.0667 61.8764 48.72C60.7297 48.3733 59.7297 47.76 58.8764 46.88C58.0497 46 57.6364 44.7467 57.6364 43.12C57.6364 41.76 58.0231 40.56 58.7964 39.52C59.5964 38.4533 60.7431 37.6267 62.2364 37.04C63.7564 36.4533 65.5431 36.16 67.5964 36.16C69.1164 36.16 70.6231 36.3333 72.1164 36.68C73.6364 37 74.8897 37.4533 75.8764 38.04L73.7964 42.48C71.9031 41.4133 69.8364 40.88 67.5964 40.88C66.2631 40.88 65.2631 41.0667 64.5964 41.44C63.9297 41.8133 63.5964 42.2933 63.5964 42.88C63.5964 43.5467 63.9564 44.0133 64.6764 44.28C65.3964 44.5467 66.5431 44.8 68.1164 45.04C69.8764 45.3333 71.3164 45.6533 72.4364 46C73.5564 46.32 74.5297 46.92 75.3564 47.8C76.1831 48.68 76.5964 49.9067 76.5964 51.48C76.5964 52.8133 76.1964 54 75.3964 55.04C74.5964 56.08 73.4231 56.8933 71.8764 57.48C70.3564 58.04 68.5431 58.32 66.4364 58.32Z" fill="white"/>
</g>
<defs>
<filter id="filter0_d_12_61" x="10.7136" y="36.16" width="65.8828" height="24.16" filterUnits="userSpaceOnUse" color-interpolation-filters="sRGB">
<feFlood flood-opacity="0" result="BackgroundImageFix"/>
<feColorMatrix in="SourceAlpha" type="matrix" values="0 0 0 0 0 0 0 0 0 0 0 0 0 0 0 0 0 0 127 0" result="hardAlpha"/>
<feOffset dx="-2" dy="2"/>
<feComposite in2="hardAlpha" operator="out"/>
<feColorMatrix type="matrix" values="0 0 0 0 0 0 0 0 0 0 0 0 0 0 0 0 0 0 0.25 0"/>
<feBlend mode="normal" in2="BackgroundImageFix" result="effect1_dropShadow_12_61"/>
<feBlend mode="normal" in="SourceGraphic" in2="effect1_dropShadow_12_61" result="shape"/>
</filter>
</defs>
</svg>
