<svg width="88" height="88" viewBox="0 0 88 88" fill="none" xmlns="http://www.w3.org/2000/svg">
<path d="M0 10C0 4.47715 4.47715 0 10 0H78C83.5228 0 88 4.47715 88 10V78C88 83.5228 83.5228 88 78 88H10C4.47715 88 0 83.5228 0 78V10Z" fill="#4054D7"/>
<path d="M57.6945 60.135C54.0226 63.104 46.3195 64.6725 38.9485 64.6725C31.5761 64.6725 23.8706 63.1029 20.2 60.1343V66.1128H20.201C20.201 69.0948 27.9 72.4179 38.9485 72.4179C49.988 72.4179 57.6825 69.099 57.6945 66.1193V60.135ZM57.6956 48.7744L59.8956 48.7624V48.7744C59.8956 50.1033 59.2301 51.3439 57.9345 52.4797C59.5054 53.8619 59.8956 55.218 59.8956 56.1836C59.8956 56.1905 59.8945 56.1956 59.8945 56.2022V66.1128H59.8956C59.8956 71.6248 49.1025 74.6 38.9485 74.6C28.8185 74.6 18.055 71.6379 18.0034 66.1513C18.0034 66.1458 18 66.1403 18 66.1348V56.1805C18 56.1781 18.0021 56.175 18.0021 56.1716C18.0055 55.206 18.3974 53.8554 19.9656 52.4762C18.407 51.0995 18.011 49.7565 18.001 48.7985H18.0021C18.0021 48.794 18 48.7909 18 48.7864V38.8321C18 38.8287 18.0021 38.8252 18.0021 38.8222C18.0055 37.8566 18.3981 36.506 19.9669 35.1292C18.407 33.7512 18.011 32.4067 18.001 31.4501H18.0021C18.0021 31.446 18 31.4415 18 31.437V21.4837C18 21.4803 18.0021 21.4772 18.0021 21.4738C18.021 15.97 28.802 13 38.9485 13C44.6805 13 50.187 13.9109 54.0556 15.4994L53.2141 17.5158C49.603 16.0329 44.4031 15.1818 38.9485 15.1818C27.9 15.1818 20.201 18.5052 20.201 21.4893C20.201 24.472 27.9 27.7953 38.9485 27.7953C39.2465 27.7988 39.538 27.7953 39.8329 27.7843L39.9251 29.9644C39.5995 29.9775 39.274 29.9775 38.9485 29.9775C31.5761 29.9775 23.8706 28.4072 20.2 25.4386V31.4147H20.201V31.4398C20.212 32.5841 21.3859 33.5834 22.3691 34.2183C25.3281 36.1048 30.6301 37.3932 36.5426 37.6606L36.4429 39.8403C30.453 39.5688 25.2084 38.3261 21.8325 36.4214C21.0006 37.0432 20.201 37.8844 20.201 38.838C20.201 41.8207 27.9 45.1441 38.9485 45.1441C40.032 45.1441 41.1076 45.108 42.1471 45.0358L42.3 47.2124C41.211 47.288 40.0825 47.3258 38.9485 47.3258C31.5761 47.3258 23.8706 45.7559 20.2 42.7873V48.7627H20.201C20.212 49.9325 21.3859 50.9307 22.3691 51.5667C25.7529 53.7258 32.1065 55.0702 38.9481 55.0702H39.4325V57.252H38.9485C31.9975 57.252 25.6801 55.9615 21.817 53.7804C20.9899 54.4012 20.2014 55.2379 20.2014 56.1839C20.2014 59.1667 27.9 62.4911 38.9485 62.4911C49.988 62.4911 57.6825 59.1722 57.6945 56.1915V56.1795C57.6925 55.2314 56.9005 54.3947 56.071 53.7739C55.501 54.1001 54.9108 54.3898 54.3041 54.6412L53.4619 52.6251C54.2605 52.2968 54.9535 51.9421 55.522 51.5691C56.5141 50.9218 57.6956 49.9102 57.6956 48.7744ZM67.1181 32.8182H60.954C60.5896 32.8182 60.2476 32.6395 60.0441 32.3404C59.943 32.1938 59.8798 32.0244 59.86 31.8474C59.8403 31.6705 59.8645 31.4913 59.9306 31.326L63.6809 21.9519H49.4806L42.8806 35.044H49.901C50.2517 35.044 50.5817 35.2111 50.79 35.4912C50.9955 35.7731 51.056 36.134 50.9495 36.4668L44.6836 55.998L67.1181 32.8182ZM70.4941 32.4834L42.9954 60.8937C42.8922 60.9997 42.7687 61.084 42.6323 61.1415C42.4959 61.1991 42.3494 61.2286 42.2014 61.2285C42.0036 61.2292 41.8093 61.1765 41.639 61.0758C41.4258 60.951 41.2615 60.7573 41.1732 60.5266C41.0848 60.2959 41.0777 60.042 41.1529 59.8067L48.3975 37.2258H41.101C40.914 37.2261 40.7299 37.1788 40.5661 37.0884C40.4024 36.9979 40.2643 36.8673 40.165 36.7088C40.0664 36.5509 40.0102 36.3702 40.0019 36.1843C39.9936 35.9983 40.0334 35.8133 40.1176 35.6473L47.8176 20.3731C47.9095 20.1913 48.0501 20.0386 48.2238 19.9321C48.3975 19.8255 48.5973 19.7694 48.801 19.7698H65.301C65.48 19.7697 65.6564 19.8132 65.8148 19.8964C65.9733 19.9796 66.1091 20.1002 66.2106 20.2476C66.3117 20.3945 66.3749 20.5641 66.3947 20.7413C66.4145 20.9185 66.3902 21.0978 66.324 21.2634L62.5741 30.6364H69.7C70.14 30.6364 70.5391 30.898 70.712 31.2999C70.7964 31.4967 70.8207 31.714 70.7819 31.9246C70.7431 32.1352 70.643 32.3296 70.4941 32.4834ZM21.8005 66.5418C23.3591 67.4201 25.3215 68.1585 27.6326 68.7349L28.1695 66.6181C26.0805 66.0977 24.2545 65.415 22.8874 64.6443L21.8005 66.5418ZM27.6326 51.2783L28.1695 49.1628C26.0805 48.6414 24.2545 47.9583 22.8874 47.188L21.8005 49.0855C23.3591 49.9638 25.3205 50.7022 27.6326 51.2783ZM21.8005 31.6292L22.8874 29.7317C24.2521 30.502 26.0795 31.184 28.1695 31.7065L27.6326 33.822C25.3184 33.2448 23.357 32.5068 21.8005 31.6292Z" fill="white"/>
</svg>
