<svg width="68" height="69" viewBox="0 0 68 69" fill="none" xmlns="http://www.w3.org/2000/svg">
<path d="M9 0.137578H6.5C6.16829 0.137578 5.83819 0.183809 5.51924 0.274938L4.61488 0.533323C3.26728 0.918353 2.14313 1.85131 1.51635 3.10488L0.769048 4.59948C0.279879 5.57782 0.232427 6.71864 0.63866 7.73422C0.875786 8.32704 0.960922 8.96974 0.886321 9.60385L0.0687301 16.5534C0.0230675 16.9415 0.0230675 17.3336 0.0687301 17.7218L0.929123 25.0351C0.976202 25.4353 0.974737 25.8397 0.924759 26.2395L0.0593833 33.1625C0.0198848 33.4785 0.0106641 33.7975 0.0318469 34.1153L0.5 41.1376L0.976007 51.6097C0.991958 51.9607 0.970884 52.3123 0.913134 52.6588L0.56803 54.7294C0.522754 55.001 0.5 55.276 0.5 55.5514V58.1376L0.86909 61.0903C0.955412 61.7809 1.18272 62.447 1.55166 63.0371C2.07669 63.8769 2.71546 64.853 3 65.1376L4.28689 66.4245C5.07311 67.2107 6.09877 67.7138 7.20287 67.8451C8.43768 67.992 9.73565 68.1376 10 68.1376H14.5L22.5 67.6376H26.5L30.5329 68.0857C30.8436 68.1202 31.1569 68.1255 31.4686 68.1015L37.5 67.6376L46 68.1376H61.7997C62.2643 68.1376 62.7313 68.0784 63.1413 67.8598C64.4723 67.1503 66.5 65.476 66.5 65.1376C66.5 64.8681 66.9538 64.2186 67.4028 63.5176C67.8216 62.864 68 62.0959 68 61.3197V60.1376L67.5 47.1376V43.5V40.1376V37V35.6376V32.1376V25.6376V23V19.6376V14.6376V10.6376V6.63757C67.5 6.13757 65.5 2.63757 65 1.63757C64.5 0.637573 63.5 0.637578 62 0.137578C61.0215 -0.188578 59.6639 0.637578 58.6325 0.637578H52.5H46.5C46.1251 0.637578 42.4992 0.344706 40.3992 0.170745C40.1335 0.148731 39.8664 0.147853 39.6005 0.168305L33.5 0.637578H25.5H21L15.5 0.137578H9Z" fill="black"/>
<path d="M12.9017 18.73C13.6651 19.4934 13.8069 19.1555 14.4431 19.6644C15.0792 20.1733 15.5558 21.2906 15.9375 21.6723C16.2074 21.9422 18.8625 23.3385 19.6258 24.1018C20.2365 24.7125 22.0195 26.3094 22.6556 26.9456L25.0814 28.6409L26.2124 29.8538L34.273 34.2421C35.4722 33.5018 44.4021 28.1161 44.662 27.9557C45.8612 27.2153 48.3985 25.6003 48.7801 25.2186C50.7207 23.2781 51.4519 22.1651 51.8336 21.7835C52.0495 21.5675 53.9965 19.6206 54.8871 18.73" stroke="white" stroke-width="3.5" stroke-linecap="round"/>
<path d="M19.3904 19.1117L12.9017 18.73L12.52 27.1271L12.9017 38.1959V48.5014L21.6805 48.8831H37.3296L48.3984 49.2648L54.5054 48.8831L54.8871 48.5014V45.8296V32.089V26.3637V19.1117H48.3984C44.1999 19.1117 35.7234 19.1548 35.4211 19.1117C32.7493 18.73 24.6067 19.1117 19.3904 19.1117Z" stroke="white" stroke-width="3.5" stroke-linecap="round"/>
</svg>
