<svg width="34" height="62" viewBox="0 0 34 62" fill="none" xmlns="http://www.w3.org/2000/svg">
<path d="M16.5152 22.0542L22.3333 1L1 22.0542L16.5152 37.093L6.81818 60.1523L33 37.093L16.5152 22.0542Z" fill="#FFFDD7"/>
<path d="M22.3333 1L23.2972 1.26636C23.4178 0.829884 23.2301 0.366832 22.8396 0.137597C22.449 -0.0916378 21.9532 -0.0298344 21.6309 0.288253L22.3333 1ZM16.5152 22.0542L15.5513 21.7879C15.451 22.1508 15.563 22.5392 15.8412 22.793L16.5152 22.0542ZM33 37.093L33.6609 37.8434C33.8742 37.6556 33.9975 37.3859 34 37.1017C34.0024 36.8175 33.8839 36.5457 33.674 36.3542L33 37.093ZM6.81818 60.1523L5.89637 59.7647C5.71565 60.1945 5.85587 60.6921 6.23439 60.9642C6.6129 61.2364 7.12926 61.2109 7.47912 60.9028L6.81818 60.1523ZM1 22.0542L0.297565 21.3425C0.106061 21.5315 -0.00120151 21.7897 1.01328e-05 22.0587C0.00122184 22.3278 0.110806 22.585 0.304004 22.7723L1 22.0542ZM16.5152 37.093L17.437 37.4806C17.5967 37.1007 17.5071 36.6617 17.2111 36.3749L16.5152 37.093ZM21.3695 0.73364L15.5513 21.7879L17.479 22.3206L23.2972 1.26636L21.3695 0.73364ZM15.8412 22.793L32.326 37.8317L33.674 36.3542L17.1891 21.3155L15.8412 22.793ZM32.3391 36.3425L6.15724 59.4019L7.47912 60.9028L33.6609 37.8434L32.3391 36.3425ZM1.70244 22.766L23.0358 1.71175L21.6309 0.288253L0.297565 21.3425L1.70244 22.766ZM7.73999 60.54L17.437 37.4806L15.5933 36.7053L5.89637 59.7647L7.73999 60.54ZM17.2111 36.3749L1.696 21.3362L0.304004 22.7723L15.8192 37.811L17.2111 36.3749Z" fill="black"/>
</svg>
