<svg width="27" height="33" viewBox="0 0 27 33" fill="none" xmlns="http://www.w3.org/2000/svg">
<path fill-rule="evenodd" clip-rule="evenodd" d="M0.242793 13.8618C0.242793 13.8618 0.551948 3.06214 12.253 0.829493C16.4522 0.273756 24.827 1.85471 26.837 11.3556C27.2159 18.3408 26.9273 31.1996 11.2522 32.2409C8.36306 32.215 -1.68022 32.3287 0.242793 13.8618V13.8618Z" fill="black"/>
<path fill-rule="evenodd" clip-rule="evenodd" d="M8.55514 31.9599C8.55514 31.9599 10.3178 27.8048 9.26434 27.0515C7.19554 27.1724 7.11831 27.4487 6.26185 26.7173C5.40539 25.9859 4.54612 24.7123 4.54612 24.7123L4.40314 21.8719C4.40314 21.8719 5.71808 21.3554 5.97588 22.8745C6.23367 24.3934 6.97667 25.0465 6.97667 25.0465C6.97667 25.0465 8.52756 25.8463 9.26434 25.2136C10.0012 24.5807 11.1087 21.9852 8.97837 20.5353C7.19554 20.3029 6.97667 19.6998 6.97667 19.6998C6.97667 19.6998 4.5981 18.7766 4.97496 15.3557C5.35195 11.9347 6.56003 12.5988 6.69081 11.3456C6.20695 9.84267 5.68624 7.22037 6.54782 7.00153C7.40929 6.78268 8.15912 6.45306 10.1223 9.0065C12.8068 8.28153 15.7667 7.68344 18.415 9.34068C19.9411 7.93793 20.6416 7.43623 21.5606 8.17118C21.8916 8.50009 21.3898 11.6249 21.5606 12.014C21.7313 12.4031 25.7699 20.4459 15.8414 20.7024C15.8529 21.9266 15.5815 22.3546 15.9844 22.8745C16.3874 23.3943 18.6497 27.4946 17.9861 30.8943C14.5704 32.4207 14.0915 33.0128 11.552 32.7323C9.01253 32.4519 8.55514 31.9599 8.55514 31.9599V31.9599Z" fill="white"/>
</svg>
