<svg width="88" height="88" viewBox="0 0 88 88" fill="none" xmlns="http://www.w3.org/2000/svg">
<rect width="88" height="88" rx="10" fill="#FF7777"/>
<path d="M25.2749 51.3141L37.1543 63.1935L34.4051 65.9428L29.5346 61.0722L24.1379 66.4688L29.0085 71.3394L26.2592 74.0886L14.3798 62.2092L17.1291 59.46L21.8129 64.1439L27.2096 58.7472L22.5257 54.0634L25.2749 51.3141ZM32.7864 48.2829L28.985 52.0843L26.7449 49.8442L37.0969 39.4922L39.337 41.7323L35.5356 45.5337L45.1749 55.173L42.4257 57.9222L32.7864 48.2829ZM61.2658 39.0821L54.1212 31.9714L56.4971 41.3392L55.2582 42.578L46.0602 40.3379L53.0351 47.3128L50.4555 49.8923L38.5761 38.0129L40.8502 35.7389L52.6787 38.6748L49.6749 26.9142L51.932 24.6571L63.8453 36.5025L61.2658 39.0821ZM54.7844 21.8047L57.5336 19.0555L67.1729 28.6948L73.1295 22.7381L75.3697 24.9782L66.6638 33.6841L54.7844 21.8047Z" fill="white"/>
</svg>
