<svg width="29" height="33" viewBox="0 0 29 33" fill="none" xmlns="http://www.w3.org/2000/svg">
<path fill-rule="evenodd" clip-rule="evenodd" d="M1.97626 4.54942C2.37314 3.86737 3.00841 2.3373 3.59585 1.78427C4.10448 1.30566 4.85065 1.31522 5.50141 1.23124C6.21599 1.13914 7.24813 1.23124 7.88328 1.23124H13.1234C13.5044 1.23124 14.0764 1.21285 14.5526 1.23124C15.0289 1.24978 15.5043 1.32905 15.9816 1.34188C16.6644 1.36041 17.7601 1.34188 18.6493 1.34188C19.5386 1.34188 20.7454 1.39719 21.317 1.34188C21.5875 1.31579 21.8093 1.0422 22.0793 1.01012C22.6986 0.936408 24.1117 0.494013 25.0327 0.899482C25.9537 1.30509 27.1895 2.22809 27.6052 3.44336C28.0339 4.69684 27.5576 7.20394 27.6052 8.42063C27.6358 9.20191 27.8435 10.0612 27.891 10.7432C27.9321 11.3312 27.891 11.923 27.891 12.513V16.7159C27.891 17.7297 27.8593 19.8682 27.891 20.9189C27.9123 21.6228 28.018 22.412 28.0816 23.0202C28.1356 23.5379 28.2289 24.0497 28.2722 24.5688C28.3198 25.1403 28.3833 25.9513 28.3675 26.4491C28.3554 26.8247 28.2984 27.2065 28.1769 27.5551C27.9069 28.3293 27.2082 30.4308 26.7477 31.0944C26.4576 31.5124 25.8713 31.458 25.4139 31.5368C23.81 31.8134 19.1893 32.5692 17.125 32.7535C15.763 32.8751 14.3892 32.7773 13.0281 32.6429C11.5354 32.4955 9.757 31.9792 8.16913 31.8686C6.61542 31.7604 4.48513 32.0898 3.50057 31.9792C3.0339 31.9267 2.54516 31.6389 2.26199 31.2051C1.86512 30.5967 1.29341 29.2326 1.1187 28.3293C0.958634 27.5012 1.10284 26.5965 1.21399 25.7854C1.32293 24.9903 1.74848 24.2667 1.78569 23.4628C1.84913 22.0894 1.65869 19.0755 1.59512 17.5454C1.54986 16.4566 1.49569 15.3675 1.40455 14.2825C1.30927 13.1488 1.10284 11.794 1.02342 10.7432C0.953998 9.82438 0.896412 8.78932 0.928133 7.97809C0.95595 7.26966 1.0394 6.44817 1.21399 5.87661C1.36722 5.37562 1.71981 4.98996 1.97626 4.54942V4.54942Z" fill="black"/>
<path fill-rule="evenodd" clip-rule="evenodd" d="M4.01218 6.87528C4.34574 6.32353 4.87926 5.08588 5.37276 4.63864C5.79989 4.25141 6.42674 4.25911 6.97344 4.19125C7.57357 4.11668 8.44064 4.19125 8.97416 4.19125H13.3759C13.696 4.19125 14.1764 4.17642 14.5763 4.19125C14.9765 4.20622 15.3759 4.27038 15.7768 4.28078C16.3503 4.29561 17.2707 4.28078 18.0176 4.28078C18.7647 4.28078 19.7784 4.32541 20.2586 4.28078C20.4856 4.25954 20.672 4.03827 20.8987 4.01232C21.4189 3.95273 22.6062 3.59488 23.3798 3.92293C24.1534 4.25099 25.1914 4.99748 25.5406 5.98065C25.9007 6.99461 25.5006 9.02253 25.5406 10.0066C25.5663 10.6386 25.7407 11.3337 25.7807 11.8853C25.8152 12.361 25.7807 12.8397 25.7807 13.3169V16.7166C25.7807 17.5367 25.754 19.2664 25.7807 20.1164C25.7985 20.6858 25.8874 21.3241 25.9407 21.8162C25.9861 22.2348 26.0645 22.649 26.1008 23.0687C26.1408 23.5309 26.1941 24.187 26.1808 24.5897C26.1707 24.8936 26.1229 25.2024 26.0208 25.4843C25.794 26.1106 25.2071 27.8105 24.8203 28.3472C24.5766 28.6854 24.0841 28.6414 23.6999 28.7051C22.3526 28.9288 18.4711 29.5401 16.7372 29.6893C15.5932 29.7876 14.4392 29.7085 13.2959 29.5997C12.042 29.4805 10.5481 29.0629 9.21426 28.9736C7.9092 28.886 6.11966 29.1525 5.29272 29.0629C4.90073 29.0206 4.49019 28.7876 4.25228 28.4368C3.91885 27.9446 3.43865 26.8413 3.292 26.1106C3.15743 25.4407 3.27858 24.709 3.37203 24.0529C3.46353 23.4096 3.82088 22.8245 3.85211 22.1741C3.90555 21.0632 3.74548 18.6252 3.69217 17.3876C3.6541 16.5069 3.6086 15.626 3.5321 14.7483C3.45207 13.8313 3.27858 12.7354 3.21196 11.8853C3.15365 11.1421 3.10521 10.3048 3.13193 9.6487C3.15523 9.07571 3.22526 8.41105 3.37203 7.94883C3.50062 7.54351 3.79685 7.23171 4.01218 6.87528V6.87528Z" fill="white"/>
<path fill-rule="evenodd" clip-rule="evenodd" d="M14.6534 9.59656C16.2723 9.83836 17.8794 10.875 18.5422 11.2239C19.6734 11.8192 20.3197 13.6306 20.6055 15.1723C20.7278 15.8319 20.784 16.0926 20.784 16.7607C20.784 18.0327 20.2252 19.5486 19.7268 20.5846C19.3517 21.3643 19.1299 21.7331 18.5422 22.2975C17.4837 23.3142 16.9526 23.604 15.4769 23.604C14.8612 23.604 13.4432 23.8186 12.8825 23.6209C11.8736 23.2653 10.974 22.6138 10.2578 21.7528C9.82277 21.2298 9.4553 20.2018 9.17213 19.5435C8.75671 18.5776 8.52271 17.9147 8.52271 16.7607C8.52271 16.0838 8.78623 15.4287 8.93666 14.8076C9.12101 14.0467 9.13296 13.2446 9.60231 12.7014C10.1926 12.0185 11.2303 11.0049 11.82 10.3958C12.6651 9.52271 13.4525 9.41721 14.6534 9.59656V9.59656Z" fill="black"/>
<path fill-rule="evenodd" clip-rule="evenodd" d="M14.2878 12.0017C15.2143 12.0017 16.7974 13.0226 17.4658 13.6556C18.3458 14.4891 18.4977 15.3354 18.5427 16.76C18.6621 20.5429 16.7395 22.1475 14.3793 21.5182C13.5381 21.294 13.0132 21.3819 12.3659 20.8497C11.4028 20.0579 10.7772 18.2598 10.765 16.76C10.7564 15.7089 10.8679 15.5132 11.5523 14.0976C12.106 12.9519 13.075 12.0017 14.2878 12.0017Z" fill="white"/>
<path fill-rule="evenodd" clip-rule="evenodd" d="M21.7743 6.44212C22.1669 6.44212 22.8378 6.87482 23.1211 7.143C23.494 7.49629 23.5583 7.85485 23.5775 8.45864C23.628 10.0618 22.8133 10.7418 21.8131 10.4752C21.4566 10.3801 21.2342 10.4174 20.9598 10.1919C20.5517 9.85626 20.2864 9.09422 20.2813 8.45864C20.2777 8.01325 20.325 7.93027 20.615 7.33034C20.8496 6.84488 21.2603 6.44212 21.7743 6.44212V6.44212Z" fill="black"/>
</svg>
