<svg width="88" height="88" viewBox="0 0 88 88" fill="none" xmlns="http://www.w3.org/2000/svg">
<rect width="88" height="88" rx="10" fill="#FCFF60"/>
<path d="M48.7926 81.42C47.1359 81.42 45.6076 81.1167 44.2076 80.51C42.8309 79.88 41.6992 78.9933 40.8126 77.85L43.9626 74.07C45.2926 75.8667 46.8092 76.765 48.5126 76.765C50.8226 76.765 51.9776 75.4117 51.9776 72.705V61.05H43.3676V56.5H57.6126V72.39C57.6126 75.4 56.8659 77.6633 55.3726 79.18C53.8792 80.6733 51.6859 81.42 48.7926 81.42ZM71.2631 81.42C69.3264 81.42 67.4481 81.1633 65.6281 80.65C63.8314 80.1133 62.3848 79.425 61.2881 78.585L63.2131 74.315C64.2631 75.085 65.5114 75.7033 66.9581 76.17C68.4048 76.6367 69.8514 76.87 71.2981 76.87C72.9081 76.87 74.0981 76.6367 74.8681 76.17C75.6381 75.68 76.0231 75.0383 76.0231 74.245C76.0231 73.6617 75.7898 73.1833 75.3231 72.81C74.8798 72.4133 74.2964 72.0983 73.5731 71.865C72.8731 71.6317 71.9164 71.375 70.7031 71.095C68.8364 70.6517 67.3081 70.2083 66.1181 69.765C64.9281 69.3217 63.9014 68.61 63.0381 67.63C62.1981 66.65 61.7781 65.3433 61.7781 63.71C61.7781 62.2867 62.1631 61.0033 62.9331 59.86C63.7031 58.6933 64.8581 57.7717 66.3981 57.095C67.9614 56.4183 69.8631 56.08 72.1031 56.08C73.6664 56.08 75.1948 56.2667 76.6881 56.64C78.1814 57.0133 79.4881 57.55 80.6081 58.25L78.8581 62.555C76.5948 61.2717 74.3314 60.63 72.0681 60.63C70.4814 60.63 69.3031 60.8867 68.5331 61.4C67.7864 61.9133 67.4131 62.59 67.4131 63.43C67.4131 64.27 67.8448 64.9 68.7081 65.32C69.5948 65.7167 70.9364 66.1133 72.7331 66.51C74.5998 66.9533 76.1281 67.3967 77.3181 67.84C78.5081 68.2833 79.5231 68.9833 80.3631 69.94C81.2264 70.8967 81.6581 72.1917 81.6581 73.825C81.6581 75.225 81.2614 76.5083 80.4681 77.675C79.6981 78.8183 78.5314 79.7283 76.9681 80.405C75.4048 81.0817 73.5031 81.42 71.2631 81.42Z" fill="black"/>
</svg>
