<svg width="27" height="31" viewBox="0 0 27 31" fill="none" xmlns="http://www.w3.org/2000/svg">
<path fill-rule="evenodd" clip-rule="evenodd" d="M0.957466 3.99824C1.18707 3.24361 1.66289 2.1702 2.05549 1.96661C2.4481 1.76302 1.76525 1.87009 2.87901 1.64583C3.99277 1.42156 3.44718 1.47246 4.61755 1.32504C5.78792 1.17763 5.54318 1.33745 6.8136 1.11119C8.08401 0.88493 8.24933 0.842301 8.91815 0.790406C9.58697 0.73851 10.8846 0.774866 11.5717 0.683478C12.2588 0.59209 11.6452 0.56101 12.5782 0.57655C13.5113 0.59209 15.2783 0.56101 16.8788 0.57655C18.4794 0.59209 19.7916 0.683478 20.5389 0.683478C20.8151 0.683478 20.8222 0.658528 21.3624 0.57655C21.9027 0.494572 21.7955 0.400333 22.0029 0.469623C22.3232 0.57655 22.7031 0.819633 23.284 1.21812C23.8648 1.6166 24.154 1.64084 24.6565 2.28739C25.159 2.93395 25.0495 2.56712 25.48 3.67745C25.9106 4.78779 25.9549 4.94162 26.1205 5.81601C26.2862 6.69039 26.4203 6.46057 26.395 7.52685C26.3698 8.59313 26.3786 8.80899 26.395 9.2377C26.4115 9.6664 26.3946 9.2059 26.4865 10.9485C26.5785 12.6912 26.5358 12.2407 26.578 13.5148C26.6203 14.789 26.6193 14.9265 26.578 15.7603C26.5368 16.594 26.5616 16.2618 26.4865 17.2573C26.4115 18.2527 26.462 17.5483 26.395 18.7543C26.3281 19.9603 26.279 19.1763 26.3035 20.2512C26.3281 21.3262 26.297 20.9642 26.3035 21.3205C26.3188 22.1403 26.2116 24.7692 26.395 25.1699C26.5785 25.5707 26.6354 25.6579 26.6696 26.3461C26.7037 27.0343 25.7088 28.1995 25.3885 28.6985C25.2198 28.9614 25.1718 28.9627 24.748 29.3401C24.3242 29.7175 23.8787 29.9104 23.5585 30.0886C23.3231 30.2195 23.7503 30.3207 22.8265 30.4094C21.9027 30.4981 23.1183 30.4858 21.3624 30.5163C19.6066 30.5468 17.2296 30.7836 15.6893 30.8371C14.5003 30.8783 12.5253 30.5907 12.1207 30.8371C11.7162 31.0835 6.29509 30.8193 4.61755 30.5163C3.67398 30.3459 2.68136 29.8621 2.05549 29.0193C1.35397 28.0748 0.652459 25.865 0.408453 24.8491C0.259122 24.2277 0.591457 23.57 0.591457 22.9244C0.591457 22.1047 0.427852 20.9307 0.408453 19.9305C0.377952 18.3622 0.378684 15.6531 0.408453 13.5148C0.438954 11.3228 0.499955 8.36445 0.591457 6.77836C0.645383 5.84281 0.71346 4.8002 0.957466 3.99824Z" fill="black"/>
<path fill-rule="evenodd" clip-rule="evenodd" d="M4.52714 7.84746C4.7864 7.27719 5.57941 6.31484 6.08267 6.0297C6.52261 5.78049 7.16544 5.9406 7.5467 6.13663C7.92235 6.32981 8.18722 6.79601 8.37022 7.2059C8.55322 7.61579 8.70573 8.1326 8.64473 8.59595C8.58372 9.05931 8.40706 9.75063 8.00421 9.98601C7.5467 10.2533 6.47918 10.289 5.89967 10.1999C5.39909 10.1229 4.7559 9.84344 4.52714 9.45137C4.29839 9.05931 4.31254 8.31965 4.52714 7.84746Z" fill="white"/>
<path fill-rule="evenodd" clip-rule="evenodd" d="M4.89026 13.0868L8.65548 13.1937L8.91632 27.2012L5.34777 27.0943C5.34777 27.0943 5.18538 13.5876 4.89026 13.0868Z" fill="white"/>
<path fill-rule="evenodd" clip-rule="evenodd" d="M10.7477 12.659L13.7673 13.0867C13.7673 13.0867 14.0393 15.4652 14.4078 15.1184C14.7762 14.7715 17.9847 11.6126 20.7214 13.9422C21.8016 15.3038 22.5612 17.7975 22.3685 22.3894C22.1757 26.9813 22.46 27.2012 22.46 27.2012H20.2639C20.2639 27.2012 19.5868 26.7859 19.5319 26.025C19.477 25.2641 20.4129 15.9409 17.1528 17.0431C15.7898 17.5831 14.4846 18.9267 14.0418 20.144C14.3203 26.0759 13.9503 27.522 13.9503 27.522H11.0222C11.0222 27.522 11.5569 13.4175 10.7477 12.659Z" fill="white"/>
</svg>
