<svg width="88" height="88" viewBox="0 0 88 88" fill="none" xmlns="http://www.w3.org/2000/svg">
<path d="M0 10C0 4.47715 4.47715 0 10 0H78C83.5228 0 88 4.47715 88 10V78C88 83.5228 83.5228 88 78 88H10C4.47715 88 0 83.5228 0 78V10Z" fill="#D9D9D9"/>
<path d="M5.00062 49.4342H7.55218V39.3577L11.5025 48.1422C11.9683 49.2056 12.6062 49.5814 13.8578 49.5814C15.1094 49.5814 15.723 49.2056 16.1889 48.1422L20.1392 39.3577V49.4342H22.6907V39.3745C22.6907 38.3931 22.2982 37.918 21.4883 37.6733C19.5497 37.0683 18.2491 37.5919 17.6603 38.9006L13.7839 47.5702L10.0305 38.9C9.46585 37.5919 8.14101 37.0683 6.20249 37.6726C5.39255 37.918 5 38.3925 5 39.3739L5.00062 49.4342ZM24.8131 41.2317H27.3641V46.7832C27.3405 47.0845 27.4609 47.7926 28.8585 47.8149C29.5715 47.8261 34.3628 47.8149 34.4076 47.8149V41.2043H36.9647C36.9765 41.2043 36.9622 50.2193 36.9622 50.2565C36.9759 52.4801 34.2038 52.9628 32.9256 53H24.8684V51.2832C24.8821 51.2832 32.92 51.2851 32.9398 51.2826C34.5827 51.1093 34.3883 50.2932 34.3877 50.0186V49.3491H28.9647C26.4417 49.3261 24.8342 48.2249 24.8137 46.9578C24.8125 46.8416 24.869 41.2876 24.8131 41.2317Z" fill="#00618A"/>
<path d="M38.9319 49.4342H46.2686C47.1276 49.4342 47.9624 49.2547 48.6245 48.9441C49.7282 48.4373 50.2679 47.7503 50.2679 46.8497V44.9851C50.2679 44.2491 49.6549 43.5615 48.4524 43.1043C47.8145 42.8584 47.0288 42.7286 46.2679 42.7286H43.176C42.1456 42.7286 41.6549 42.418 41.5325 41.731C41.5083 41.6491 41.5083 41.5838 41.5083 41.5019V40.3404C41.5083 40.2751 41.5083 40.2093 41.5325 40.1279C41.6549 39.6043 41.9251 39.4571 42.8331 39.3751L43.0785 39.359H50.3661V37.6584H43.2015C42.171 37.6584 41.6313 37.7236 41.1406 37.8708C39.6195 38.3453 38.9561 39.0975 38.9561 40.4062V41.8944C38.9561 43.0397 40.2574 44.0211 42.4406 44.2503C42.6866 44.2658 42.9313 44.2832 43.1766 44.2832H45.8269C45.9251 44.2832 46.0232 44.2832 46.0971 44.2988C46.9071 44.364 47.2499 44.5118 47.4959 44.8056C47.5589 44.8638 47.6089 44.9347 47.6427 45.0136C47.6764 45.0924 47.693 45.1776 47.6915 45.2634V46.7522C47.6915 46.9317 47.5692 47.1609 47.3238 47.3572C47.1033 47.5534 46.735 47.6845 46.2443 47.7174L45.9741 47.7336H38.9319V49.4342ZM66.1873 46.4739C66.1873 48.2236 67.4879 49.205 70.1127 49.4019C70.3581 49.418 70.6034 49.4342 70.8488 49.4342H77.4985V47.7336H70.8003C69.3034 47.7336 68.7394 47.3572 68.7394 46.4571V37.6571H66.1879L66.1873 46.4739ZM51.8965 46.5621V40.4969C51.8965 38.9565 52.9785 38.0217 55.1177 37.7267C55.3456 37.694 55.5756 37.6776 55.8059 37.6776H60.65C60.8959 37.6776 61.1171 37.6938 61.3624 37.7267C63.5015 38.0217 64.5842 38.9559 64.5842 40.4969V46.5621C64.5842 47.8131 64.1245 48.4814 63.0655 48.9174L65.5798 51.1864H62.6164L60.5829 49.3503L58.5357 49.4801H55.8059C55.2988 49.4769 54.7944 49.4052 54.3065 49.2671C52.6835 48.8249 51.8965 47.9721 51.8965 46.5621ZM54.6506 46.4149C54.6506 46.4969 54.6748 46.5795 54.6996 46.6776C54.8468 47.3826 55.5114 47.7758 56.5189 47.7758H58.8369L56.7077 45.8534H59.6711L61.5276 47.5304C61.8705 47.3472 62.0953 47.069 62.1742 46.7106C62.1984 46.6286 62.1984 46.5466 62.1984 46.4646V40.6459C62.1984 40.5807 62.1984 40.4981 62.1742 40.4161C62.0264 39.7602 61.3624 39.3838 60.3792 39.3838H56.5183C55.3878 39.3838 54.65 39.8758 54.65 40.6459L54.6506 46.4149Z" fill="#E48E00"/>
<path d="M79.7433 34.8341C78.175 34.7912 76.9768 34.9372 75.952 35.3689C75.6607 35.4919 75.1967 35.495 75.1495 35.8596C75.3091 36.0279 75.334 36.2782 75.4613 36.4844C75.706 36.8801 76.119 37.4105 76.4874 37.6881C76.8892 37.9919 77.3041 38.3173 77.7364 38.5807C78.5035 39.049 79.3607 39.3161 80.1004 39.7844C80.5358 40.0614 80.9681 40.4093 81.3936 40.7217C81.6042 40.8751 81.7445 41.1155 82.0184 41.2118V41.1677C81.875 40.9851 81.8377 40.7341 81.706 40.5428L81.1259 39.9627C80.5588 39.2099 79.8396 38.5496 79.0737 38.0006C78.4638 37.5627 77.0985 36.9708 76.8439 36.2608L76.7992 36.2167C77.2315 36.1676 77.7383 36.0111 78.1371 35.9043C78.8079 35.7242 79.4073 35.7707 80.0998 35.5919L81.0365 35.3235V35.1459C80.6868 34.7869 80.4364 34.3111 80.0551 33.9863C79.0569 33.136 77.9663 32.2863 76.8439 31.5769C76.2215 31.1844 75.452 30.9291 74.7917 30.5962C74.5706 30.4838 74.1805 30.426 74.0333 30.2391C73.6861 29.7974 73.4979 29.2378 73.2302 28.7229C72.6585 27.6105 72.123 26.4799 71.6246 25.3328C71.2867 24.5595 71.0656 23.7968 70.6439 23.103C68.6184 19.7732 66.4383 17.7632 63.0612 15.7881C62.3426 15.3676 61.4774 15.2024 60.5637 14.9856L59.0917 14.8961C58.7929 14.7713 58.4811 14.4048 58.1997 14.2272C57.0805 13.5204 54.2109 11.9831 53.3823 14.0048C52.8593 15.2806 54.1649 16.5253 54.6314 17.1719C54.9587 17.6253 55.3786 18.1334 55.6128 18.6434C55.7668 18.9788 55.7929 19.3148 55.9252 19.6695C56.2488 20.5427 56.5314 21.4937 56.9506 22.3005C57.1625 22.7092 57.3966 23.1397 57.6643 23.5049C57.8283 23.7285 58.1103 23.8279 58.1544 24.1738C57.8792 24.5589 57.8631 25.1577 57.7084 25.6453C57.0115 27.8434 57.2743 30.5757 58.2885 32.2024C58.5997 32.7024 59.3326 33.7732 60.3401 33.362C61.2215 33.003 61.0252 31.8906 61.2774 30.9086C61.3345 30.6869 61.2991 30.5229 61.4109 30.3738V30.4186L62.214 32.0242C62.8084 32.9813 63.8625 33.9807 64.7563 34.6558C65.2196 35.0055 65.5848 35.6111 66.1836 35.8155V35.7701H66.1395C66.0227 35.5894 65.842 35.5149 65.6929 35.3689C65.3438 35.0267 64.9556 34.6018 64.6674 34.2093C63.8544 33.1061 63.1364 31.8981 62.4817 30.6409C62.1693 30.0409 61.8979 29.3788 61.6345 28.7676C61.5327 28.5322 61.5339 28.1757 61.3227 28.0546C61.0333 28.5018 60.609 28.8639 60.3854 29.3925C60.0289 30.2372 59.983 31.2676 59.8507 32.336L59.7612 32.3801C59.1395 32.2304 58.9215 31.5906 58.6904 31.0422C58.1066 29.6552 57.9979 27.421 58.5121 25.8241C58.6451 25.4105 59.2457 24.1092 59.0022 23.7272C58.8861 23.3465 58.5028 23.1266 58.2892 22.8347C58.0088 22.4441 57.7697 22.0255 57.5755 21.5856C57.0972 20.5042 56.8743 19.2899 56.3718 18.1962C56.1308 17.6732 55.7246 17.1446 55.3904 16.68C55.0208 16.1645 54.6065 15.7856 54.3196 15.1632C54.2177 14.9421 54.0792 14.5874 54.2301 14.3601C54.278 14.2067 54.3469 14.1427 54.4985 14.0924C54.7569 13.893 55.4774 14.1589 55.7469 14.2707C56.4625 14.5682 57.0593 14.8508 57.6656 15.252C57.9562 15.4452 58.25 15.8179 58.6022 15.921H59.0035C59.6314 16.0651 60.3351 15.9651 60.9215 16.1434C61.9587 16.4589 62.8879 16.9489 63.7314 17.4819C66.3022 19.1055 68.4035 21.416 69.842 24.1726C70.0731 24.6167 70.1737 25.0397 70.3768 25.5105C70.788 26.4595 71.306 27.4366 71.7147 28.3651C72.1228 29.2912 72.5209 30.226 73.0979 30.9968C73.401 31.4018 74.5725 31.6192 75.1048 31.844C75.478 32.0018 76.0892 32.1664 76.4426 32.3788C77.1178 32.7863 77.7725 33.2714 78.4054 33.7173C78.7215 33.9422 79.6948 34.431 79.7433 34.8341ZM59.8059 17.8409C59.5355 17.8364 59.2656 17.8665 59.0028 17.9303V17.9744H59.0476C59.2035 18.2955 59.4786 18.5017 59.6718 18.7775L60.1184 19.7142L60.1625 19.6701C60.4389 19.4757 60.5649 19.1645 60.5637 18.6887C60.4525 18.5719 60.4364 18.426 60.3407 18.2875C60.214 18.1011 59.9668 17.9968 59.8059 17.8409Z" fill="#00618A"/>
</svg>
