<svg width="88" height="88" viewBox="0 0 88 88" fill="none" xmlns="http://www.w3.org/2000/svg">
<rect width="88" height="88" rx="10" fill="black"/>
<g clip-path="url(#clip0_301_62)">
<path d="M70.4382 36.0066V38.5389H65.0487V51.8615H62.3538V38.5391H56.852V36.0066H70.4382ZM71.0441 50.3512C71.2339 50.3512 71.3999 50.4202 71.5405 50.5583C71.6831 50.6963 71.7541 50.8617 71.7561 51.0543C71.7558 51.1807 71.721 51.3046 71.6556 51.4123C71.5914 51.5187 71.5016 51.6068 71.3945 51.6685C71.2886 51.7323 71.1674 51.7657 71.0441 51.7648C70.8466 51.7648 70.6787 51.6957 70.5383 51.5577C70.3977 51.4195 70.328 51.2523 70.3299 51.0543C70.3282 50.8617 70.3977 50.6963 70.5383 50.5583C70.6787 50.4202 70.8466 50.3512 71.0441 50.3512ZM17.6317 51.8615L7.69496 39.3889V51.8551H5V36H8.36847L20.9225 51.7429L20.9227 38.5391L20.9216 36.0066H34.5076V38.5389H23.6175V42.6128H32.3754V45.1452H23.6175V49.3292H34.5078V51.8615H17.6317ZM43.1446 45.1211L44.9107 47.3385L41.2918 51.8803H37.7551L43.1446 45.1211ZM41.2918 36.0132L45.8514 41.7317L50.3968 36.0308L53.9235 36.0254L47.6171 43.9462L53.9337 51.8682H50.3968L37.7652 36.0132H41.2918ZM75.6435 45.0855H76.8375V49.7317C76.8359 50.1586 76.7443 50.5237 76.5656 50.8309C76.3848 51.1378 76.1345 51.3723 75.8133 51.5377C75.4937 51.7011 75.1194 51.7848 74.6939 51.7848C74.305 51.7848 73.9564 51.714 73.6459 51.5758C73.3355 51.4377 73.0891 51.2306 72.9083 50.958C72.7255 50.6855 72.6361 50.3457 72.6361 49.9388H73.8323C73.8341 50.1168 73.8742 50.2711 73.9508 50.4003C74.0262 50.5278 74.1366 50.6306 74.2686 50.6963C74.4054 50.7655 74.5626 50.8 74.7395 50.8C74.9314 50.8 75.0956 50.76 75.2289 50.6782C75.3621 50.5982 75.4645 50.4783 75.5358 50.3185C75.6051 50.1603 75.6416 49.9642 75.6435 49.7315V45.0855ZM81.7509 46.9025C81.722 46.6209 81.594 46.4009 81.3713 46.2448C81.1466 46.0866 80.8564 46.0086 80.5002 46.0086C80.2503 46.0086 80.0348 46.0468 79.8558 46.1212C79.6769 46.1975 79.5381 46.2992 79.4431 46.4283C79.3483 46.5572 79.3008 46.7045 79.297 46.8698C79.297 47.0078 79.3299 47.1278 79.3937 47.2277C79.46 47.3324 79.5493 47.4201 79.6548 47.484C79.7695 47.5568 79.8921 47.6159 80.0202 47.6602C80.1551 47.7074 80.2904 47.7474 80.4254 47.7802L81.048 47.9346C81.2983 47.9928 81.5412 48.0708 81.773 48.1708C82.0047 48.2689 82.2148 48.3943 82.3992 48.5451C82.5836 48.6958 82.7297 48.8775 82.8375 49.0902C82.9452 49.3028 83 49.5517 83 49.8388C83 50.2257 82.9014 50.5655 82.7023 50.8598C82.5034 51.1525 82.2166 51.3814 81.8405 51.5468C81.4662 51.7103 81.0133 51.7938 80.4802 51.7938C79.9653 51.7938 79.5162 51.7138 79.1381 51.554C78.7584 51.396 78.4626 51.1632 78.2489 50.858C78.0353 50.5528 77.9203 50.1803 77.9038 49.7425H79.0872C79.1035 49.9714 79.1766 50.1622 79.3008 50.3166C79.4266 50.4692 79.591 50.5818 79.7919 50.6582C79.9946 50.7328 80.2209 50.7709 80.4711 50.7709C80.7322 50.7709 80.9622 50.7309 81.1612 50.6528C81.3585 50.5746 81.5136 50.4657 81.6251 50.3238C81.7383 50.1838 81.795 50.0186 81.7968 49.8297C81.795 49.6571 81.7436 49.5135 81.6451 49.4008C81.5447 49.2882 81.4059 49.1937 81.2287 49.1174C81.05 49.0411 80.8417 48.972 80.6044 48.9122L79.8485 48.7195C79.3025 48.5795 78.8698 48.3671 78.5538 48.0817C78.2362 47.7965 78.0791 47.4186 78.0791 46.9443C78.0791 46.5555 78.185 46.2138 78.3988 45.9212C78.6105 45.6289 78.9009 45.4017 79.2679 45.24C79.6366 45.0765 80.0531 44.9965 80.5166 44.9965C80.9878 44.9965 81.4004 45.0765 81.7566 45.24C82.1124 45.4017 82.392 45.6269 82.5945 45.914C82.7972 46.2012 82.9033 46.53 82.9087 46.9025H81.7509Z" fill="white"/>
</g>
<defs>
<clipPath id="clip0_301_62">
<rect width="78" height="16" fill="white" transform="translate(5 36)"/>
</clipPath>
</defs>
</svg>
