<svg width="88" height="88" viewBox="0 0 88 88" fill="none" xmlns="http://www.w3.org/2000/svg">
<rect width="88" height="88" rx="10" fill="#393939"/>
<path d="M32.7299 32.7298C40.6079 24.8518 49.0535 19.1334 56.2894 16.2235C59.9102 14.7675 63.158 14.0429 65.8408 14.0537C68.5149 14.0645 70.5166 14.7996 71.8586 16.1415C73.2005 17.4834 73.9356 19.4851 73.9463 22.1592C73.9572 24.8421 73.2326 28.0899 71.7765 31.7106C68.8667 38.9465 63.1483 47.3921 55.2702 55.2702C47.3922 63.1482 38.9466 68.8666 31.7107 71.7765C28.0899 73.2325 24.8422 73.9571 22.1593 73.9463C19.4852 73.9355 17.4835 73.2004 16.1416 71.8585C14.7996 70.5166 14.0646 68.5149 14.0538 65.8408C14.043 63.1579 14.7675 59.9101 16.2236 56.2894C19.1335 49.0535 24.8518 40.6079 32.7299 32.7298Z" stroke="#56A4D0" stroke-width="3"/>
<path d="M28.0615 44C28.0615 32.8588 29.9899 22.8433 33.0489 15.6692C34.5795 12.0793 36.3637 9.27043 38.2685 7.38101C40.1669 5.49777 42.1021 4.60212 43.9999 4.60212C45.8977 4.60212 47.8329 5.49777 49.7314 7.38101C51.6361 9.27043 53.4203 12.0793 54.9509 15.6692C58.0099 22.8433 59.9383 32.8588 59.9384 44C59.9384 55.1412 58.0099 65.1567 54.9509 72.3308C53.4203 75.9207 51.6361 78.7295 49.7314 80.619C47.8329 82.5022 45.8977 83.3979 43.9999 83.3979C42.1022 83.3979 40.1669 82.5022 38.2685 80.619C36.3637 78.7295 34.5796 75.9207 33.0489 72.3308C29.9899 65.1567 28.0615 55.1412 28.0615 44Z" stroke="#56A4D0" stroke-width="3"/>
<path d="M32.7298 55.2702C24.8518 47.3921 19.1334 38.9465 16.2235 31.7106C14.7675 28.0899 14.0429 24.8421 14.0537 22.1592C14.0645 19.4851 14.7996 17.4834 16.1415 16.1415C17.4834 14.7996 19.4851 14.0645 22.1592 14.0537C24.8421 14.0429 28.0899 14.7675 31.7106 16.2235C38.9465 19.1334 47.3921 24.8518 55.2702 32.7298C63.1482 40.6079 68.8666 49.0535 71.7765 56.2894C73.2325 59.9101 73.9571 63.1579 73.9463 65.8408C73.9355 68.5149 73.2004 70.5166 71.8585 71.8585C70.5166 73.2004 68.5149 73.9355 65.8408 73.9463C63.1579 73.9571 59.9101 73.2325 56.2894 71.7765C49.0535 68.8666 40.6079 63.1482 32.7298 55.2702Z" stroke="#56A4D0" stroke-width="3"/>
<path d="M44 59.9385C32.8587 59.9385 22.8433 58.0101 15.6691 54.9511C12.0793 53.4204 9.2704 51.6362 7.38098 49.7315C5.49774 47.833 4.60209 45.8978 4.60209 44C4.60209 42.1023 5.49774 40.1671 7.38098 38.2686C9.2704 36.3639 12.0793 34.5797 15.6691 33.049C22.8433 29.99 32.8587 28.0616 44 28.0616C55.1412 28.0616 65.1566 29.99 72.3308 33.049C75.9206 34.5797 78.7295 36.3638 80.6189 38.2686C82.5022 40.1671 83.3978 42.1023 83.3978 44C83.3978 45.8978 82.5022 47.833 80.6189 49.7315C78.7295 51.6362 75.9206 53.4204 72.3308 54.9511C65.1566 58.01 55.1412 59.9385 44 59.9385Z" stroke="#56A4D0" stroke-width="3"/>
<circle cx="43.949" cy="43.7543" r="6.0373" fill="#56A4D0"/>
</svg>
