<svg width="88" height="88" viewBox="0 0 88 88" fill="none" xmlns="http://www.w3.org/2000/svg">
<path d="M0 10C0 4.47715 4.47715 0 10 0H78C83.5228 0 88 4.47715 88 10V78C88 83.5228 83.5228 88 78 88H10C4.47715 88 0 83.5228 0 78V10Z" fill="#CD6799"/>
<path d="M68.4076 47.9182C66.241 47.921 64.1034 48.4194 62.1564 49.3755C61.5468 48.358 61.076 47.2625 60.7568 46.1187C60.5734 45.2221 60.531 44.3021 60.6311 43.3923C60.8418 42.3912 61.115 41.4044 61.4492 40.4379C61.4369 40.3115 61.2989 39.7141 59.9116 39.6943C58.5244 39.6745 57.3293 39.9595 57.2012 40.3288C56.9603 41.0034 56.7668 41.6941 56.6222 42.3959C55.474 45.2451 54.0608 47.9787 52.4013 50.5603C51.4715 49.0271 51.0891 47.2208 51.3171 45.4396C51.5277 44.4385 51.8009 43.4517 52.1351 42.4852C52.1228 42.3588 51.9848 41.7614 50.5976 41.7416C49.2103 41.7218 48.0153 42.0068 47.8871 42.3761C47.759 42.7454 47.5964 43.6154 47.3081 44.4432C47.0198 45.2711 43.6539 52.8356 42.7718 54.7862C42.3184 55.7776 41.9267 56.5856 41.6507 57.1309C41.6376 57.1663 41.6211 57.2004 41.6014 57.2325L41.2244 57.9563V57.9687C41.0347 58.3107 40.8326 58.628 40.7316 58.628C40.5554 57.9199 40.5639 57.178 40.7562 56.4741C41.249 53.8493 42.4564 49.7696 42.4441 49.6283C42.4441 49.5515 42.6708 48.8427 41.663 48.4758C41.4293 48.3639 41.1668 48.3277 40.9117 48.3721C40.6567 48.4165 40.4216 48.5393 40.2388 48.7237C40.1501 48.7237 40.0885 48.9393 40.0885 48.9393C40.0885 48.9393 41.185 44.3515 37.9965 44.3515C36.7549 44.6027 35.5757 45.1012 34.5284 45.8176C33.4811 46.5339 32.5868 47.4538 31.898 48.5229C31.0406 48.9914 29.2147 49.9927 27.2607 51.0709C26.5215 51.4897 25.7478 51.9086 25.0308 52.3101C24.9815 52.2606 24.9297 52.1961 24.8805 52.1466C20.9996 47.9876 13.8662 45.0529 14.1742 39.4886C14.2876 37.4611 14.98 32.1372 27.8718 25.6707C38.4819 20.4112 46.9262 21.8686 48.3874 25.1006C50.4793 29.7157 43.8634 38.284 32.9009 39.5258C31.6881 39.7733 30.4355 39.7434 29.2358 39.4384C28.036 39.1333 26.9198 38.561 25.9696 37.7635C25.3905 37.129 25.3018 37.0918 25.0874 37.2182C24.7351 37.4091 24.9618 37.9792 25.0874 38.3088C25.5057 39.0701 26.0713 39.7393 26.751 40.277C27.4307 40.8147 28.2106 41.2099 29.0447 41.4392C33.3573 42.3767 37.8537 41.9284 41.8996 40.1578C48.5524 37.5727 53.7269 30.3849 52.2091 24.3645C50.6838 18.2549 40.6035 16.2398 31.0627 19.6552C25.0868 21.6779 19.5651 24.8639 14.8124 29.0316C9.55664 33.9763 8.72626 38.2716 9.0663 40.0735C10.2983 46.4632 19.0481 50.6198 22.5495 53.7056C22.3913 53.796 22.2319 53.8845 22.0715 53.9708C20.3195 54.8457 13.642 58.3578 11.9689 62.0707C10.079 66.2842 12.272 69.2957 13.7209 69.7021C15.904 70.2278 18.1959 70.0547 20.2764 69.2068C22.357 68.359 24.1225 66.8789 25.3265 64.9731C26.3516 63.3923 26.9818 61.5857 27.1633 59.7071C27.3448 57.8285 27.0722 55.9337 26.3687 54.1839C26.3569 54.1556 26.3402 54.1296 26.3195 54.1071L27.6919 53.2966C28.5259 52.8007 29.3704 52.3231 30.225 51.864C29.712 53.3522 29.4109 54.906 29.3305 56.4791C29.1563 58.8901 29.8899 61.2789 31.3855 63.1712C31.6131 63.3682 31.8773 63.5179 32.1628 63.6115C32.4483 63.7051 32.7494 63.7408 33.0487 63.7164C34.5272 63.7164 35.2048 62.4772 35.9464 61.0049C36.8532 59.2055 37.6713 57.1136 37.6713 57.1136C37.6713 57.1136 36.6512 62.7672 39.4232 62.7672C40.431 62.7672 41.4511 61.4486 41.9069 60.7843V60.7967L41.9833 60.6703L42.146 60.4051V60.3803C42.5501 59.6714 43.4568 58.0604 44.8046 55.386C46.5443 51.9384 48.2198 47.6282 48.2198 47.6282C48.3814 48.5754 48.6045 49.511 48.8876 50.4289C49.2934 51.5416 49.7733 52.6256 50.3241 53.6733C49.92 54.2434 49.6686 54.5607 49.6686 54.5607L49.681 54.5731C49.3533 55.0043 49.0009 55.4728 48.6091 55.9288C47.4435 57.2179 46.362 58.5815 45.3714 60.011C45.2242 60.2511 45.1736 60.5387 45.2299 60.815C45.2862 61.0913 45.4452 61.3356 45.6744 61.4981C46.1932 61.7696 46.7844 61.8677 47.3623 61.7782C48.2332 61.7287 49.0896 61.5318 49.8953 61.1958C50.674 60.9201 51.4086 60.5319 52.076 60.0432C52.764 59.5637 53.3179 58.9143 53.6842 58.1573C54.0506 57.4002 54.2172 56.5611 54.168 55.7206C54.0905 54.6619 53.8216 53.6262 53.3746 52.6646C53.5002 52.4861 53.621 52.3101 53.7392 52.1317C55.1401 50.0284 56.4028 47.8351 57.5191 45.566C57.6807 46.5132 57.9037 47.4488 58.1868 48.3668C58.5215 49.3283 58.9336 50.2609 59.4188 51.1551C57.8072 52.4024 56.5378 54.0418 55.7302 55.9189C54.9368 58.2264 55.5528 59.265 56.7158 59.5054C57.3522 59.5495 57.9885 59.4184 58.5564 59.1262C59.3914 58.8501 60.178 58.4436 60.8874 57.9216C61.6354 57.4776 62.2618 56.8534 62.7105 56.1054C63.1591 55.3573 63.4157 54.5088 63.4574 53.6362C63.4014 52.7651 63.2059 51.9089 62.8783 51.1006C65.005 50.2649 67.3109 49.9984 69.5706 50.3273C75.5681 51.0362 76.7533 54.8011 76.5266 56.3874C76.4203 56.9497 76.1955 57.4826 75.8674 57.9503C75.5393 58.418 75.1155 58.8097 74.6244 59.0989C74.208 59.3641 74.07 59.4533 74.1069 59.6442C74.1562 59.9243 74.3533 59.9094 74.7106 59.8598C75.6145 59.5772 76.4121 59.0256 76.998 58.2778C77.5839 57.5301 77.9307 56.6212 77.9927 55.6711C78.1824 51.9532 74.654 47.876 68.415 47.9132L68.4076 47.9182ZM22.1331 63.6024C20.1421 65.7835 17.3701 66.6064 16.1726 65.91C14.8863 65.1664 15.3915 61.9443 17.8358 59.6343C19.2858 58.3214 20.8529 57.1457 22.5175 56.1222C22.8082 55.9437 23.237 55.6909 23.7495 55.3786L23.8875 55.3018L24.1905 55.1109C24.6272 56.5827 24.6668 58.1448 24.3053 59.637C23.9437 61.1292 23.194 62.4978 22.1331 63.6024ZM36.6241 53.6882C35.9317 55.386 34.4828 59.7359 33.6007 59.493C32.8442 59.2897 32.3687 55.9933 33.4504 52.7365C33.9965 51.1687 34.7921 49.7004 35.806 48.3891C36.8902 47.1721 38.0877 46.7656 38.376 47.2613C38.113 49.4793 37.5225 51.6455 36.6241 53.6882ZM48.582 59.4434C48.2913 59.5946 48.0153 59.6913 47.8896 59.6219C47.8009 59.5723 48.0153 59.374 48.0153 59.374C48.0153 59.374 49.5159 57.7506 50.1072 57.0169C50.4473 56.5856 50.8465 56.08 51.2801 55.5075V55.6711C51.2801 57.6093 49.4149 58.9155 48.5845 59.4484L48.582 59.4434ZM57.8074 57.3267C57.593 57.1755 57.6299 56.6674 58.3494 55.0836C58.8497 54.0665 59.5486 53.1611 60.4044 52.4217C60.5356 52.7969 60.6039 53.1914 60.6065 53.5891C60.6162 54.4356 60.3471 55.2616 59.8412 55.9381C59.3353 56.6147 58.6211 57.1038 57.8098 57.3292L57.8074 57.3267Z" fill="white"/>
</svg>
