<svg width="68" height="67" viewBox="0 0 68 67" fill="none" xmlns="http://www.w3.org/2000/svg">
<path d="M64.6196 30.0179L44.4198 65.0049L29.9527 56.6523L21.947 54.6218L16.5441 48.9108L2.07689 40.5582L22.2766 5.57119L26.1581 7.81214L29.2828 2.39988L42.6914 10.1413L43.269 17.6911L50.1015 14.4195L64.5686 22.7721L61.4439 28.1844L64.6196 30.0179Z" fill="#64707B"/>
<path d="M21.947 54.6218L43.269 17.6911M21.947 54.6218L28.5047 51.8262L42.9718 60.1788L61.4439 28.1844M21.947 54.6218L21.0947 47.5481L7.68607 39.8066L26.1581 7.81214M21.947 54.6218L29.9527 56.6523L44.4198 65.0049L64.6196 30.0179L61.4439 28.1844M21.947 54.6218L16.5441 48.9108L2.07689 40.5582L22.2766 5.57119L26.1581 7.81214M61.4439 28.1844L64.5686 22.7721L50.1015 14.4195L43.269 17.6911M43.269 17.6911L42.6914 10.1413L29.2828 2.39988L26.1581 7.81214" stroke="#2D333B"/>
<path d="M64.6196 30.0179L44.4198 65.0049L29.9527 56.6523L21.947 54.6218L16.5441 48.9108L2.07689 40.5582L22.2766 5.57119L26.1581 7.81214L29.2828 2.39988L42.6914 10.1413L43.269 17.6911L50.1015 14.4195L64.5686 22.7721L61.4439 28.1844L64.6196 30.0179Z" fill="#64707B"/>
<path d="M21.947 54.6218L43.269 17.6911M21.947 54.6218L28.5047 51.8262L42.9718 60.1788L61.4439 28.1844M21.947 54.6218L21.0947 47.5481L7.68607 39.8066L26.1581 7.81214M21.947 54.6218L29.9527 56.6523L44.4198 65.0049L64.6196 30.0179L61.4439 28.1844M21.947 54.6218L16.5441 48.9108L2.07689 40.5582L22.2766 5.57119L26.1581 7.81214M61.4439 28.1844L64.5686 22.7721L50.1015 14.4195L43.269 17.6911M43.269 17.6911L42.6914 10.1413L29.2828 2.39988L26.1581 7.81214" stroke="#2D333B"/>
<path d="M27.7137 10.7419C29.6052 10.4848 31.3339 10.3368 33.0403 11.2502C34.2648 11.9057 33.8816 13.1384 33.9391 14.377C33.9924 15.5238 35.3309 15.9046 36.1733 16.3478C37.2056 16.891 38.395 17.1539 39.4001 17.7342" stroke="#2D333B" stroke-linecap="round" stroke-linejoin="round"/>
<path d="M45.2601 21.1752C47.1516 20.918 48.8803 20.77 50.5867 21.6835C51.8112 22.339 51.428 23.5717 51.4855 24.8103C51.5387 25.9571 52.8773 26.3378 53.7197 26.7811C54.752 27.3242 55.9414 27.5871 56.9465 28.1674" stroke="#2D333B" stroke-linecap="round" stroke-linejoin="round"/>
<path d="M24.1228 18.9638C25.3672 18.8787 27.9641 19.4372 28.4255 20.7671C28.6984 21.5535 28.7246 23.0914 29.5074 23.5434C30.7079 24.2365 32.1687 24.1258 33.5315 24.2052C34.0302 24.2343 34.4431 24.5545 34.8606 24.7956" stroke="#2D333B" stroke-linecap="round" stroke-linejoin="round"/>
<path d="M41.3938 29.5013C42.6382 29.4162 45.2351 29.9747 45.6966 31.3046C45.9694 32.091 45.9956 33.6289 46.7785 34.0809C47.9789 34.774 49.4397 34.6633 50.8025 34.7427C51.3012 34.7718 51.7141 35.092 52.1316 35.3331" stroke="#2D333B" stroke-linecap="round" stroke-linejoin="round"/>
<path d="M19.2402 27.4208C20.3108 27.6684 21.3784 27.8957 22.4645 28.0772C22.9877 28.1646 23.4882 28.2801 23.9476 28.5454C24.7312 28.9977 24.8831 30.0987 25.3019 30.8388C25.7194 31.5766 26.7887 32.3685 27.5656 32.6361C28.4874 32.9535 29.711 32.9565 30.6963 32.8094" stroke="#2D333B" stroke-linecap="round" stroke-linejoin="round"/>
<path d="M36.8853 37.3103C37.956 37.5579 39.0236 37.7852 40.1097 37.9667C40.6329 38.0541 41.1333 38.1696 41.5928 38.4349C42.3763 38.8873 42.5282 39.9882 42.9471 40.7284C43.3645 41.4661 44.4339 42.2581 45.2108 42.5256C46.1326 42.843 47.3561 42.846 48.3415 42.6989" stroke="#2D333B" stroke-linecap="round" stroke-linejoin="round"/>
<path d="M15.2545 34.9248C16.5243 34.9708 18.0589 34.7403 19.0257 35.7131C19.459 36.1489 19.6758 36.7763 20.0105 37.2894C20.403 37.8912 20.9432 38.2092 21.5458 38.5571C22.2617 38.9705 22.7592 39.3328 23.6104 39.1976C24.1441 39.1127 25.0455 39.012 25.5356 39.1448" stroke="#2D333B" stroke-linecap="round" stroke-linejoin="round"/>
<path d="M32.5128 44.8836C33.7826 44.9296 35.3171 44.6991 36.284 45.6718C36.7172 46.1077 36.9341 46.735 37.2688 47.2481C37.6613 47.85 38.2015 48.1679 38.8041 48.5159C39.52 48.9292 40.0175 49.2916 40.8687 49.1563C41.4024 49.0715 42.3038 48.9707 42.7939 49.1035" stroke="#2D333B" stroke-linecap="round" stroke-linejoin="round"/>
</svg>
