<svg width="88" height="88" viewBox="0 0 88 88" fill="none" xmlns="http://www.w3.org/2000/svg">
<path d="M0 10C0 4.47715 4.47715 0 10 0H78C83.5228 0 88 4.47715 88 10V78C88 83.5228 83.5228 88 78 88H10C4.47715 88 0 83.5228 0 78V10Z" fill="#242938"/>
<path fill-rule="evenodd" clip-rule="evenodd" d="M29.1172 38.0938C31.1328 30.0312 36.1722 26 44.2344 26C56.3281 26 57.8398 35.0703 63.8867 36.582C67.9183 37.5902 71.4453 36.0785 74.4688 32.0469C72.4535 40.109 67.4137 44.1406 59.3516 44.1406C47.2578 44.1406 45.7461 35.0703 39.6992 33.5586C35.6676 32.5508 32.1406 34.0625 29.1172 38.0938ZM14 56.2344C16.0156 48.1722 21.0547 44.1406 29.1172 44.1406C41.2109 44.1406 42.7227 53.2109 48.7695 54.7227C52.8011 55.7308 56.3281 54.2191 59.3516 50.1875C57.3363 58.2497 52.2965 62.2812 44.2344 62.2812C32.1406 62.2812 30.6289 53.2109 24.582 51.6992C20.5508 50.6911 17.0234 52.2028 14 56.2344Z" fill="url(#paint0_linear_302_77)"/>
<defs>
<linearGradient id="paint0_linear_302_77" x1="30.293" y1="26" x2="56.1602" y2="63.457" gradientUnits="userSpaceOnUse">
<stop stop-color="#32B1C1"/>
<stop offset="1" stop-color="#14C6B7"/>
</linearGradient>
</defs>
</svg>
