<svg width="29" height="33" viewBox="0 0 29 33" fill="none" xmlns="http://www.w3.org/2000/svg">
<path fill-rule="evenodd" clip-rule="evenodd" d="M1.72748 4.54912C2.12436 3.86707 2.75963 2.337 3.34707 1.78397C3.8557 1.30536 4.60187 1.31491 5.25264 1.23094C5.96721 1.13884 6.99935 1.23094 7.6345 1.23094H12.8746C13.2557 1.23094 13.8276 1.21255 14.3038 1.23094C14.7801 1.24947 15.2555 1.32874 15.7328 1.34157C16.4157 1.36011 17.5114 1.34157 18.4005 1.34157C19.2898 1.34157 20.4967 1.39689 21.0682 1.34157C21.3387 1.31548 21.5605 1.04189 21.8305 1.00981C22.4498 0.936103 23.863 0.493707 24.784 0.899178C25.705 1.30479 26.9407 2.22779 27.3564 3.44306C27.7851 4.69654 27.3088 7.20364 27.3564 8.42034C27.387 9.20162 27.5947 10.0609 27.6423 10.743C27.6834 11.3309 27.6423 11.9227 27.6423 12.5127V16.7157C27.6423 17.7295 27.6105 19.8679 27.6423 20.9186C27.6635 21.6225 27.7693 22.4118 27.8328 23.02C27.8869 23.5377 27.9801 24.0495 28.0234 24.5686C28.071 25.14 28.1345 25.9511 28.1187 26.4488C28.1066 26.8245 28.0496 27.2063 27.9281 27.5549C27.6581 28.329 26.9594 30.4305 26.499 31.0942C26.2088 31.5122 25.6225 31.4577 25.1651 31.5366C23.5613 31.8132 18.9405 32.5689 16.8762 32.7533C15.5142 32.8749 14.1404 32.7771 12.7794 32.6426C11.2867 32.4952 9.50822 31.979 7.92035 31.8683C6.36664 31.7601 4.23635 32.0896 3.25179 31.979C2.78513 31.9265 2.29638 31.6386 2.01321 31.2048C1.61634 30.5965 1.04463 29.2323 0.869923 28.329C0.709855 27.501 0.854062 26.5962 0.965207 25.7851C1.07416 24.99 1.4997 24.2665 1.53691 23.4625C1.60035 22.0891 1.40991 19.0752 1.34634 17.5451C1.30108 16.4563 1.24691 15.3672 1.15578 14.2823C1.06049 13.1485 0.854062 11.7937 0.774638 10.743C0.705219 9.82409 0.647633 8.78903 0.679354 7.9778C0.707171 7.26937 0.790621 6.44788 0.965207 5.87631C1.11844 5.37532 1.47103 4.98967 1.72748 4.54912V4.54912Z" fill="black"/>
<path fill-rule="evenodd" clip-rule="evenodd" d="M6.49183 8.52731C7.05939 12.1177 13.5762 13.8177 14.4564 13.2321C14.4564 13.2321 15.5374 5.47131 20.7662 10.0243L22.4132 9.06195L21.4982 10.8797L22.9622 10.452C22.9622 10.452 23.0175 11.3891 21.4067 12.2698C21.8795 13.6547 19.152 30.2732 5.85132 23.2834C9.21701 22.2728 11.25 21.6795 11.25 21.6795C11.25 21.6795 7.99442 21.3952 6.30883 18.4716C8.86455 18.263 8.96239 18.3647 8.96239 18.3647C8.96239 18.3647 6.17792 17.3061 5.85132 13.9806C6.85772 14.5997 7.68649 14.8465 7.77287 14.6222C7.77287 14.6222 5.50093 13.1694 6.49183 8.52731V8.52731Z" fill="white"/>
</svg>
